<?xml version="1.0" encoding="utf-8"?>
<!-- Generator: Adobe Illustrator 16.0.0, SVG Export Plug-In . SVG Version: 6.00 Build 0)  -->
<!DOCTYPE svg PUBLIC "-//W3C//DTD SVG 1.1//EN" "http://www.w3.org/Graphics/SVG/1.1/DTD/svg11.dtd">
<svg version="1.1" id="圖層_1" xmlns="http://www.w3.org/2000/svg" xmlns:xlink="http://www.w3.org/1999/xlink" x="0px" y="0px"
	 width="595.28px" height="841.89px" viewBox="0 0 595.28 841.89" enable-background="new 0 0 595.28 841.89" xml:space="preserve">
<linearGradient id="SVGID_1_" gradientUnits="userSpaceOnUse" x1="19" y1="484.4648" x2="585.9287" y2="484.4648">
	<stop  offset="0.5" style="stop-color:#E61673;stop-opacity:0.3"/>
	<stop  offset="0.5" style="stop-color:#FDEFF3;stop-opacity:0.5"/>
</linearGradient>
<circle fill="url(#SVGID_1_)" cx="302.464" cy="484.465" r="283.464"/>
<linearGradient id="SVGID_2_" gradientUnits="userSpaceOnUse" x1="33.1733" y1="484.4648" x2="571.7559" y2="484.4648">
	<stop  offset="0.5" style="stop-color:#E60012;stop-opacity:0.5"/>
	<stop  offset="1" style="stop-color:#FDEFF3;stop-opacity:0.5"/>
</linearGradient>
<circle fill="url(#SVGID_2_)" cx="302.465" cy="484.465" r="269.291"/>
<linearGradient id="SVGID_3_" gradientUnits="userSpaceOnUse" x1="89.7246" y1="484.4648" x2="515.2051" y2="484.4648">
	<stop  offset="0.5" style="stop-color:#F39800;stop-opacity:0.1"/>
	<stop  offset="0.6882" style="stop-color:#FDEFF3;stop-opacity:0.1"/>
</linearGradient>
<circle fill="url(#SVGID_3_)" cx="302.465" cy="484.465" r="212.74"/>
<g>
	<g>
		<g>
			<linearGradient id="SVGID_4_" gradientUnits="userSpaceOnUse" x1="288.0938" y1="243.1172" x2="293.9531" y2="243.1172">
				<stop  offset="0" style="stop-color:#F7F8F8;stop-opacity:0.9"/>
				<stop  offset="0.4138" style="stop-color:#000000;stop-opacity:0.8"/>
			</linearGradient>
			<path fill="url(#SVGID_4_)" d="M293.953,257.484c-0.063,2.25-0.906,3.375-2.531,3.375c-1.813,0-2.735-1.125-2.766-3.375
				c-0.063-4.812-0.157-11.344-0.281-19.594c-0.031-1.875-0.11-4.172-0.234-6.891c-0.031-0.687-0.047-1.359-0.047-2.016
				c0-2.406,0.859-3.609,2.578-3.609c1.625,0,2.469,1.109,2.531,3.328L293.953,257.484z"/>
			<linearGradient id="SVGID_5_" gradientUnits="userSpaceOnUse" x1="305.8125" y1="243.1172" x2="324.1875" y2="243.1172">
				<stop  offset="0" style="stop-color:#F7F8F8;stop-opacity:0.9"/>
				<stop  offset="0.4138" style="stop-color:#000000;stop-opacity:0.8"/>
			</linearGradient>
			<path fill="url(#SVGID_5_)" d="M324.188,256.172c0,0.969-0.797,1.906-2.391,2.813c-2.188,1.25-4.563,1.875-7.125,1.875
				c-1.906,0-3.516-0.532-4.828-1.594c-1.406-1.156-2.109-2.672-2.109-4.547c0-2.438,2.141-6.453,6.422-12.047
				c1.813-2.406,2.984-4.094,3.516-5.063c0.781-1.281,1.172-2.438,1.172-3.469c0-0.906-0.453-1.765-1.359-2.578
				c-0.906-0.844-1.844-1.266-2.813-1.266c-1.656,0-3.203,0.688-4.641,2.063c-0.719,0.688-1.328,1.031-1.828,1.031
				c-1.594-0.031-2.391-0.813-2.391-2.344c0-0.968,0.516-1.953,1.547-2.953c1.875-1.812,4.313-2.719,7.313-2.719
				c2.594,0,4.781,0.922,6.563,2.766c1.813,1.875,2.719,4.109,2.719,6.703c0,1.344-0.531,2.891-1.594,4.641
				c-0.75,1.156-2.406,3.359-4.969,6.609c-3.25,4.156-4.875,6.797-4.875,7.922c0,0.594,0.234,1.109,0.703,1.547
				c0.469,0.406,1,0.609,1.594,0.609c1.625,0.031,3.375-0.563,5.25-1.781c0.844-0.563,1.422-0.844,1.734-0.844
				C323.391,253.547,324.188,254.422,324.188,256.172z"/>
		</g>
		<g>
			<linearGradient id="SVGID_6_" gradientUnits="userSpaceOnUse" x1="547.625" y1="481.582" x2="566.375" y2="481.582">
				<stop  offset="0" style="stop-color:#F7F8F8;stop-opacity:0.9"/>
				<stop  offset="0.4138" style="stop-color:#000000;stop-opacity:0.8"/>
			</linearGradient>
			<path fill="url(#SVGID_6_)" d="M566.375,487.09c0,1.719-0.438,3.641-1.313,5.766c-0.844,2.125-1.844,3.797-3,5.016
				c-0.938,0.969-1.797,1.453-2.578,1.453c-1.594,0-2.391-0.719-2.391-2.156c0-0.5,0.359-1.125,1.078-1.875
				c2.156-2.344,3.266-5.078,3.328-8.203c0.063-2.969-1.156-4.453-3.656-4.453c-0.719,0-1.641,0.25-2.766,0.75
				c-1.156,0.438-1.813,0.656-1.969,0.656c-1.406-0.031-2.109-0.75-2.109-2.156c0-1.969,1.609-3.188,4.828-3.656
				c1.313-0.188,2.453-0.953,3.422-2.297s1.453-2.719,1.453-4.125c0-2.344-1.531-3.516-4.594-3.516
				c-1.969,0-3.531,0.453-4.688,1.359c-0.688,0.531-1.25,0.797-1.688,0.797c-1.406,0-2.109-0.719-2.109-2.156
				c0-0.969,0.578-1.828,1.734-2.578c1.906-1.25,4.203-1.875,6.891-1.875s4.859,0.625,6.516,1.875
				c1.844,1.344,2.781,3.313,2.813,5.906c0,1.563-0.281,2.984-0.844,4.266c-0.406,0.969-1.188,2.203-2.344,3.703
				C565.047,481.309,566.375,483.809,566.375,487.09z"/>
		</g>
		<g>
			<linearGradient id="SVGID_7_" gradientUnits="userSpaceOnUse" x1="48.1563" y1="480.582" x2="67.8906" y2="480.582">
				<stop  offset="0" style="stop-color:#F7F8F8;stop-opacity:0.9"/>
				<stop  offset="0.4138" style="stop-color:#000000;stop-opacity:0.8"/>
			</linearGradient>
			<path fill="url(#SVGID_7_)" d="M67.891,473.48c0,2.125-0.766,3.188-2.297,3.188c-1.469,0-2.203-1.063-2.203-3.188
				c0-1.656-0.375-3-1.125-4.031c-0.813-1.188-2.016-1.781-3.609-1.781c-1.719,0-3.188,1.016-4.406,3.047
				c-1.094,1.75-1.641,3.563-1.641,5.438c0,4.844,2.063,7.266,6.188,7.266c2.219,0,3.703-1.063,4.453-3.188
				c0.406-1.219,1.141-1.828,2.203-1.828c1.594,0,2.391,1.031,2.391,3.094l-0.375,2.344c-0.625,3.813-1.125,7.813-1.5,12
				c-0.156,1.688-0.859,2.516-2.109,2.484c-1.656-0.063-2.484-1.031-2.484-2.906c0-0.094,0.313-2.688,0.938-7.781
				c-1.156,0.594-2.547,0.891-4.172,0.891c-2.906,0-5.297-1.141-7.172-3.422s-2.813-5.125-2.813-8.531
				c0-3.531,0.906-6.625,2.719-9.281c2.093-2.969,4.828-4.453,8.203-4.453c3.031,0,5.297,1.031,6.797,3.094
				C67.219,467.809,67.891,470.324,67.891,473.48z"/>
		</g>
		<g>
			<linearGradient id="SVGID_8_" gradientUnits="userSpaceOnUse" x1="292.5" y1="720.582" x2="310.8281" y2="720.582">
				<stop  offset="0" style="stop-color:#F7F8F8;stop-opacity:0.9"/>
				<stop  offset="0.4138" style="stop-color:#000000;stop-opacity:0.8"/>
			</linearGradient>
			<path fill="url(#SVGID_8_)" d="M310.828,726.23c0,2.875-0.719,5.516-2.156,7.922c-1.719,2.781-3.938,4.172-6.656,4.172
				c-3.344,0-5.844-1.297-7.5-3.891c-1.344-2.156-2.016-5.031-2.016-8.625c0-4.344,0.563-8.281,1.688-11.813
				c1.313-4.219,3.328-7.391,6.047-9.516c1.375-1.094,2.641-1.641,3.797-1.641c1.688,0,2.531,0.703,2.531,2.109
				c0,0.531-0.563,1.172-1.688,1.922c-3.406,2.219-5.516,5.281-6.328,9.188c1.063-0.813,2.156-1.219,3.281-1.219
				c3.063,0,5.391,1.172,6.984,3.516C310.156,720.355,310.828,722.98,310.828,726.23z M305.859,726.277c0-1.594-0.297-3-0.891-4.219
				c-0.75-1.656-1.828-2.484-3.234-2.484c-1.375,0-2.797,0.688-4.266,2.063c-0.219,1.813-0.328,3.406-0.328,4.781
				c0,1.781,0.25,3.313,0.75,4.594c0.75,1.75,1.875,2.625,3.375,2.625c1.594,0,2.813-0.875,3.656-2.625
				C305.547,729.637,305.859,728.059,305.859,726.277z"/>
		</g>
	</g>
	<g>
		<g>
			<path d="M293.953,257.484c-0.063,2.25-0.906,3.375-2.531,3.375c-1.813,0-2.735-1.125-2.766-3.375
				c-0.063-4.812-0.157-11.344-0.281-19.594c-0.031-1.875-0.11-4.172-0.234-6.891c-0.031-0.687-0.047-1.359-0.047-2.016
				c0-2.406,0.859-3.609,2.578-3.609c1.625,0,2.469,1.109,2.531,3.328L293.953,257.484z"/>
			<path d="M324.188,256.172c0,0.969-0.797,1.906-2.391,2.813c-2.188,1.25-4.563,1.875-7.125,1.875
				c-1.906,0-3.516-0.532-4.828-1.594c-1.406-1.156-2.109-2.672-2.109-4.547c0-2.438,2.141-6.453,6.422-12.047
				c1.813-2.406,2.984-4.094,3.516-5.063c0.781-1.281,1.172-2.438,1.172-3.469c0-0.906-0.453-1.765-1.359-2.578
				c-0.906-0.844-1.844-1.266-2.813-1.266c-1.656,0-3.203,0.688-4.641,2.063c-0.719,0.688-1.328,1.031-1.828,1.031
				c-1.594-0.031-2.391-0.813-2.391-2.344c0-0.968,0.516-1.953,1.547-2.953c1.875-1.812,4.313-2.719,7.313-2.719
				c2.594,0,4.781,0.922,6.563,2.766c1.813,1.875,2.719,4.109,2.719,6.703c0,1.344-0.531,2.891-1.594,4.641
				c-0.75,1.156-2.406,3.359-4.969,6.609c-3.25,4.156-4.875,6.797-4.875,7.922c0,0.594,0.234,1.109,0.703,1.547
				c0.469,0.406,1,0.609,1.594,0.609c1.625,0.031,3.375-0.563,5.25-1.781c0.844-0.563,1.422-0.844,1.734-0.844
				C323.391,253.547,324.188,254.422,324.188,256.172z"/>
		</g>
		<g>
			<path d="M566.375,487.09c0,1.719-0.438,3.641-1.313,5.766c-0.844,2.125-1.844,3.797-3,5.016
				c-0.938,0.969-1.797,1.453-2.578,1.453c-1.594,0-2.391-0.719-2.391-2.156c0-0.5,0.359-1.125,1.078-1.875
				c2.156-2.344,3.266-5.078,3.328-8.203c0.063-2.969-1.156-4.453-3.656-4.453c-0.719,0-1.641,0.25-2.766,0.75
				c-1.156,0.438-1.813,0.656-1.969,0.656c-1.406-0.031-2.109-0.75-2.109-2.156c0-1.969,1.609-3.188,4.828-3.656
				c1.313-0.188,2.453-0.953,3.422-2.297s1.453-2.719,1.453-4.125c0-2.344-1.531-3.516-4.594-3.516
				c-1.969,0-3.531,0.453-4.688,1.359c-0.688,0.531-1.25,0.797-1.688,0.797c-1.406,0-2.109-0.719-2.109-2.156
				c0-0.969,0.578-1.828,1.734-2.578c1.906-1.25,4.203-1.875,6.891-1.875s4.859,0.625,6.516,1.875
				c1.844,1.344,2.781,3.313,2.813,5.906c0,1.563-0.281,2.984-0.844,4.266c-0.406,0.969-1.188,2.203-2.344,3.703
				C565.047,481.309,566.375,483.809,566.375,487.09z"/>
		</g>
		<g>
			<path d="M67.891,473.48c0,2.125-0.766,3.188-2.297,3.188c-1.469,0-2.203-1.063-2.203-3.188c0-1.656-0.375-3-1.125-4.031
				c-0.813-1.188-2.016-1.781-3.609-1.781c-1.719,0-3.188,1.016-4.406,3.047c-1.094,1.75-1.641,3.563-1.641,5.438
				c0,4.844,2.063,7.266,6.188,7.266c2.219,0,3.703-1.063,4.453-3.188c0.406-1.219,1.141-1.828,2.203-1.828
				c1.594,0,2.391,1.031,2.391,3.094l-0.375,2.344c-0.625,3.813-1.125,7.813-1.5,12c-0.156,1.688-0.859,2.516-2.109,2.484
				c-1.656-0.063-2.484-1.031-2.484-2.906c0-0.094,0.313-2.688,0.938-7.781c-1.156,0.594-2.547,0.891-4.172,0.891
				c-2.906,0-5.297-1.141-7.172-3.422s-2.813-5.125-2.813-8.531c0-3.531,0.906-6.625,2.719-9.281
				c2.093-2.969,4.828-4.453,8.203-4.453c3.031,0,5.297,1.031,6.797,3.094C67.219,467.809,67.891,470.324,67.891,473.48z"/>
		</g>
		<g>
			<path d="M310.828,726.23c0,2.875-0.719,5.516-2.156,7.922c-1.719,2.781-3.938,4.172-6.656,4.172c-3.344,0-5.844-1.297-7.5-3.891
				c-1.344-2.156-2.016-5.031-2.016-8.625c0-4.344,0.563-8.281,1.688-11.813c1.313-4.219,3.328-7.391,6.047-9.516
				c1.375-1.094,2.641-1.641,3.797-1.641c1.688,0,2.531,0.703,2.531,2.109c0,0.531-0.563,1.172-1.688,1.922
				c-3.406,2.219-5.516,5.281-6.328,9.188c1.063-0.813,2.156-1.219,3.281-1.219c3.063,0,5.391,1.172,6.984,3.516
				C310.156,720.355,310.828,722.98,310.828,726.23z M305.859,726.277c0-1.594-0.297-3-0.891-4.219
				c-0.75-1.656-1.828-2.484-3.234-2.484c-1.375,0-2.797,0.688-4.266,2.063c-0.219,1.813-0.328,3.406-0.328,4.781
				c0,1.781,0.25,3.313,0.75,4.594c0.75,1.75,1.875,2.625,3.375,2.625c1.594,0,2.813-0.875,3.656-2.625
				C305.547,729.637,305.859,728.059,305.859,726.277z"/>
		</g>
	</g>
	<g opacity="0.3">
		<g>
			<g>
				<path fill="#E83828" d="M293.953,257.484c0,0-0.022,0.299-0.064,0.86c-0.056,0.276-0.092,0.625-0.239,1.011
					c-0.123,0.39-0.374,0.818-0.794,1.165c-0.425,0.363-1.057,0.501-1.719,0.502c-0.607,0.021-1.489-0.159-2.067-0.799
					c-0.599-0.629-0.892-1.506-1.047-2.381c-0.143-0.828-0.293-1.698-0.45-2.606c-0.649-3.591-1.721-7.777-2.67-12.265
					c-0.239-1.122-0.45-2.263-0.65-3.418c-0.054-0.289-0.103-0.578-0.142-0.869l-0.065-0.437l-0.032-0.218l-0.008-0.055
					c0,0.024-0.004-0.093-0.002,0.047l-0.004-0.027l-0.019-0.109c-0.098-0.583-0.201-1.168-0.278-1.756
					c-0.169-1.177-0.304-2.364-0.408-3.557c-0.053-0.615-0.102-1.152-0.131-1.835l-0.04-0.899l-0.015-0.45l-0.007-0.225
					l-0.002-0.057l0.007-0.423l0.004-0.113l0.023-0.449l0.013-0.225l0.057-0.481c0.087-0.663,0.207-1.318,0.458-1.977
					c0.179-0.599,0.623-1.436,1.12-2.129c0.309-0.387,0.656-0.754,1.021-1.086c0.374-0.327,0.831-0.608,1.276-0.86
					c0.462-0.273,0.879-0.386,1.335-0.533c0.225-0.066,0.45-0.125,0.676-0.174c0.198-0.03,0.384-0.047,0.578-0.065l0.576-0.037
					l0.287-0.009l0.071-0.001c0.23,0.01-0.414-0.022,0.534,0.021l0.055,0.009l0.441,0.071c-0.023-0.005,0.395,0.063,0.655,0.132
					c0.289,0.07,0.575,0.156,0.853,0.256c0.594,0.201,0.979,0.453,1.411,0.733c0.433,0.274,0.792,0.597,1.116,0.958
					c0.337,0.357,0.636,0.741,0.82,1.087c0.908,1.529,0.973,2.671,1.053,3.683l-0.002,0.697c-0.001,0.237-0.009,0.477-0.028,0.589
					c-0.033,0.292-0.058,0.583-0.102,0.874c-0.158,1.163-0.316,2.311-0.511,3.441c-0.382,2.261-0.811,4.448-1.186,6.521
					c-0.391,2.074-0.751,4.034-1.003,5.841c-0.524,3.615-0.719,6.622-0.755,8.723C293.907,256.285,293.953,257.484,293.953,257.484z
					 M293.953,257.484c0,0-0.017-1.2-0.168-3.297c-0.145-2.097-0.497-5.089-1.208-8.672c-0.346-1.792-0.808-3.73-1.306-5.781
					c-0.482-2.051-1.025-4.212-1.524-6.451c-0.254-1.119-0.471-2.257-0.689-3.41c-0.06-0.288-0.1-0.578-0.148-0.868
					c-0.021-0.178-0.049-0.23-0.076-0.284l-0.069-0.177c-0.094-0.134-0.248-0.19-0.021,0.358c0.054,0.076,0.139,0.254,0.267,0.401
					c0.129,0.134,0.271,0.259,0.433,0.4c0.175,0.132,0.324,0.195,0.621,0.336c0.136,0.056,0.281,0.098,0.427,0.124
					c0.118,0.028,0.397,0.033,0.223,0.029l-0.448-0.009l-0.056-0.001c0.928,0.046,0.267,0.015,0.478,0.026l0.016,0.004l0.064,0.012
					c0.043,0.006,0.087,0.007,0.131,0.004c0.045-0.002,0.082-0.011,0.133-0.021c0.083-0.003,0.167-0.017,0.25-0.037
					c0.179-0.039,0.285-0.117,0.51-0.197c0.201-0.083,0.38-0.233,0.537-0.357c0.163-0.112,0.307-0.259,0.414-0.425
					c0.196-0.182,0.298-0.512,0.334-0.523c0.031-0.097,0.059-0.159,0.057-0.228c-0.001-0.011-0.007-0.051-0.013-0.037l-0.009,0.225
					l-0.019,0.45l0.007,1.432l-0.017,1.755c-0.023,1.197-0.077,2.39-0.166,3.574c-0.037,0.592-0.1,1.183-0.158,1.771l-0.011,0.11
					l-0.003,0.028c0.002,0.159-0.001,0.06-0.001,0.102l-0.006,0.055l-0.026,0.219l-0.052,0.438
					c-0.032,0.292-0.071,0.583-0.118,0.873c-0.167,1.16-0.345,2.307-0.551,3.435c-0.82,4.512-1.771,8.726-2.317,12.334
					c-0.128,0.889-0.287,1.797-0.342,2.558c-0.075,0.747-0.026,1.474,0.311,1.999c0.089,0.123,0.19,0.236,0.287,0.356
					c0.125,0.09,0.248,0.178,0.369,0.265c0.264,0.122,0.537,0.243,0.869,0.267c0.583,0.089,1.18,0.035,1.593-0.264
					c0.424-0.273,0.69-0.681,0.834-1.054c0.172-0.37,0.214-0.718,0.274-0.991C293.925,257.783,293.953,257.484,293.953,257.484z"/>
			</g>
			<g>
				<path fill="#E83828" d="M324.188,256.172c-0.027-0.02,0.092,0.553-0.496,1.307c-0.283,0.367-0.705,0.765-1.261,1.147
					c-0.549,0.397-1.263,0.715-2.021,1.127c-1.591,0.702-3.629,1.375-6.145,1.454c-2.362,0.063-5.788-0.875-7.263-4.307
					c-0.165-0.412-0.289-0.84-0.38-1.281c-0.052-0.22-0.072-0.439-0.107-0.664l-0.024-0.168l-0.006-0.042
					c-0.007,0.09,0.003-0.171,0.002-0.157l-0.001-0.072l-0.004-0.291l-0.008-0.584c0.02-0.224,0.064-0.48,0.101-0.725l0.128-0.751
					l0.173-0.647c0.444-1.745,1.13-3.374,1.897-4.996c0.38-0.816,0.785-1.628,1.219-2.426c0.419-0.817,0.874-1.609,1.334-2.416
					l0.345-0.608l0.087-0.153l0.022-0.038c0.05-0.07-0.044,0.053-0.027,0.027l0.041-0.075l0.164-0.298
					c0.219-0.398,0.439-0.798,0.66-1.2c0.222-0.402,0.443-0.806,0.667-1.212l0.33-0.599l0.236-0.524l0.478-1.032
					c0.127-0.292,0.398-0.915,0.469-1.183c-0.007-0.164,0.02-0.301-0.002-0.467c0.019-0.092-0.024-0.122-0.048-0.143
					c-0.01-0.012-0.015-0.024-0.017-0.035c-0.006-0.109,0.06,0.968,0.026,0.49l-0.01-0.044l-0.02-0.087l-0.04-0.175
					c-0.027-0.099-0.055-0.274-0.08-0.31c-0.021,0.14-0.019,0.286,0.009,0.427c0.019,0.127,0.107,0.302,0.129,0.36
					c-0.014,0.02-0.02,0.039-0.021,0.055c-0.001,0.016,0.004,0.029,0.013,0.039c-0.025-0.005-0.058-0.015-0.082-0.024
					c-0.025-0.01-0.049-0.021-0.069-0.035l-0.015-0.011l-0.007-0.006c0.371,0.314,0.081,0.073,0.154,0.136l-0.149-0.102l-0.3-0.205
					l-0.15-0.103c-0.042-0.027-0.129-0.096-0.091-0.043c0.045,0.103,0.124,0.181,0.216,0.221c0.04,0.063,0.09,0.104,0.153,0.106
					c0.071,0.045,0.171,0.086,0.263,0.074c-0.433,0.023,0.614-0.035,0.483-0.025l-0.045,0.007l-0.09,0.015l-0.181,0.03l-0.361,0.06
					l-0.361,0.061c-0.05,0.011-0.145,0.018-0.157,0.031l0.039,0.04c0.055,0.046,0.112,0.063,0.16,0.055
					c0.014,0.007,0.067-0.038,0.038-0.005l-0.086,0.091c-0.059,0.056-0.122,0.098-0.189,0.135c-0.067,0.027-0.149,0.16-0.228,0.227
					c-0.079,0.082-0.161,0.158-0.247,0.231l-0.693,0.635c-0.007,0.009-0.064,0.057-0.138,0.113l-0.195,0.151l-0.402,0.292
					c-0.281,0.19-0.521,0.364-0.902,0.543c-0.363,0.175-0.699,0.325-1.111,0.462c-0.552,0.153-1.142,0.248-1.715,0.276l-0.583-0.02
					l-0.092-0.006l-0.185-0.012l-0.186-0.012c-0.097-0.008-0.381-0.051-0.563-0.085c-0.837-0.136-1.609-0.422-2.329-0.811
					c-0.769-0.444-1.533-1.06-2.099-1.839c-0.312-0.392-0.512-0.767-0.695-1.158c-0.192-0.398-0.35-0.805-0.425-1.129
					c-0.089-0.338-0.18-0.721-0.222-1.033c-0.032-0.29-0.056-0.581-0.071-0.873l-0.01-0.218c0.019-0.318-0.046,0.557,0.04-0.74
					l0.006-0.046l0.023-0.184l0.046-0.368c0.013-0.076,0-0.063,0.057-0.314c0.044-0.192,0.095-0.385,0.15-0.578
					c0.112-0.385,0.248-0.767,0.403-1.135c0.075-0.178,0.164-0.38,0.241-0.527l0.192-0.319l0.404-0.628
					c0.138-0.198,0.286-0.43,0.423-0.592l0.413-0.468l0.424-0.459l0.216-0.225c-0.153,0.14,0.273-0.255,0.24-0.223l0.035-0.03
					l0.071-0.06l0.567-0.477c0.26-0.208,0.687-0.516,1.033-0.753c0.382-0.275,0.706-0.445,1.039-0.623
					c0.336-0.175,0.667-0.365,1.016-0.498c2.764-1.229,5.689-1.37,8.044-1.083c1.755,0.21,3.03,0.656,4.381,1.336
					c1.319,0.668,2.466,1.579,3.392,2.564l0.342,0.374l0.169,0.188c0.264,0.285,0.088,0.1,0.154,0.173l0.025,0.036l0.053,0.073
					l0.419,0.581c0.365,0.534,0.874,1.265,1.124,1.826c0.618,1.184,1.015,2.491,1.197,3.764c0.117,0.639,0.124,1.267,0.152,1.887
					l-0.046,0.911l-0.014,0.225l-0.021,0.409l-0.02,0.084l-0.076,0.336c-0.058,0.242-0.086,0.407-0.167,0.711
					c-0.103,0.362-0.215,0.719-0.335,1.069c-0.241,0.774-0.525,1.157-0.793,1.687c-0.258,0.521-0.586,0.91-0.878,1.352l-0.225,0.319
					l-0.224,0.325l-0.116,0.119l-0.463,0.476c-0.615,0.632-1.223,1.256-1.822,1.872c-1.209,1.246-2.386,2.458-3.524,3.63
					c-1.126,1.171-2.192,2.236-3.124,3.358c-0.463,0.557-0.92,1.107-1.31,1.659c-0.412,0.542-0.737,1.123-0.93,1.611
					c-0.017,0.092-0.087,0.242-0.08,0.294c0.004,0.161-0.001,0.366,0.033,0.417c0.009,0.084,0.033,0.188,0.098,0.3
					c0.037,0.115,0.117,0.216,0.194,0.319c0.326,0.415,0.788,0.648,1.299,0.696c2.354,0.148,4.249-0.9,5.731-1.772
					c0.382-0.209,0.748-0.413,1.144-0.49c0.402-0.039,0.751,0.027,1.083,0.127c0.663,0.203,1.056,0.701,1.218,1.127
					C324.262,255.658,324.152,256.18,324.188,256.172z M324.188,256.172c-0.035,0.009,0.067-0.517-0.257-1.386
					c-0.164-0.422-0.563-0.91-1.218-1.078c-0.31-0.084-0.693-0.137-1.052-0.086c-0.36,0.08-0.712,0.306-1.072,0.532
					c-0.354,0.249-0.74,0.489-1.153,0.741c-0.204,0.129-0.413,0.262-0.627,0.397c-0.222,0.123-0.462,0.223-0.7,0.339
					c-0.241,0.112-0.488,0.227-0.74,0.344c-0.271,0.086-0.549,0.173-0.83,0.262l-0.434,0.133c-0.144,0.029-0.286,0.042-0.431,0.063
					c-0.306,0.036-0.549,0.086-0.919,0.113c-0.695,0.036-1.463-0.26-2.02-0.77c-0.14-0.132-0.281-0.267-0.389-0.446
					c-0.123-0.157-0.227-0.353-0.302-0.59c-0.1-0.255-0.103-0.387-0.139-0.557c-0.049-0.281,0.009-0.46,0.021-0.703
					c0.157-0.814,0.454-1.491,0.76-2.17c0.304-0.688,0.657-1.344,1.021-2.02c0.73-1.335,1.547-2.725,2.371-4.088
					c0.784-1.384,1.595-2.815,2.428-4.287c0.422-0.743,0.85-1.496,1.283-2.258l0.325-0.573l0.082-0.144
					c-0.216,0.325-0.053,0.071-0.099,0.135l0.012-0.033l0.023-0.065l0.093-0.26c0.108-0.344,0.285-0.696,0.328-1.018
					c0.055-0.301,0.196-0.719,0.136-0.834c-0.005-0.086-0.001-0.165,0.013-0.241c0.006-0.139-0.011-0.432-0.016-0.642l-0.011-0.344
					l-0.003-0.086c-0.027,0.583-0.013,0.145-0.021,0.267l-0.007-0.03l-0.029-0.117l-0.106-0.464
					c-0.105-0.289-0.169-0.585-0.306-0.842c-0.225-0.535-0.536-0.986-0.909-1.403c-0.199-0.268-0.298-0.27-0.498-0.494l-0.525-0.486
					l-0.066-0.061l-0.032-0.03c0.045,0.051-0.148-0.158,0.093,0.107l-0.091-0.058l-0.178-0.117c-0.473-0.305-0.904-0.539-1.36-0.637
					c-0.41-0.105-1.03-0.159-1.214-0.147c-1.514,0.012-2.613,0.321-3.439,0.758c-0.113,0.041-0.198,0.122-0.296,0.181
					c-0.098,0.062-0.21,0.124-0.22,0.151c-0.053,0.051-0.042,0.013-0.168,0.112l-0.549,0.498c0.172-0.112-0.225,0.243-0.115,0.176
					c0.004,0,0.004-0.002-0.001-0.007l-0.01-0.008c0.022-0.037,0.073-0.121,0.102-0.185c0.064-0.138,0.109-0.291,0.13-0.445
					c0.024-0.125,0.015-0.433-0.007-0.187l-0.051,0.367l-0.025,0.184l-0.006,0.046c0.08-1.267,0.023-0.361,0.042-0.647l0.003-0.034
					c0.002-0.045-0.005-0.09-0.02-0.132c-0.011-0.068-0.025-0.213-0.063-0.311c-0.036-0.077-0.085-0.262-0.168-0.438
					c-0.083-0.165-0.183-0.313-0.321-0.523c-0.287-0.364-0.646-0.684-1.002-0.862c-0.276-0.164-0.593-0.264-0.939-0.317
					c-0.062-0.008-0.227-0.012-0.202-0.005l0.185,0.019l0.185,0.019l0.092,0.009l0.046,0.005c0.397,0.018-0.473-0.019-0.444-0.018
					c-0.33-0.011-0.676,0.044-0.984,0.157c-0.183,0.051-0.296,0.091-0.434,0.169c-0.147,0.096-0.194,0.11-0.269,0.167
					c-0.034,0.026-0.066,0.055-0.096,0.085l-0.043,0.048c-0.021,0.023-0.027,0.035,0.01,0.002l0.286-0.234l0.143-0.117l0.071-0.059
					c-0.353,0.322-0.066,0.063-0.131,0.124l0.055-0.045l0.894-0.706c0.314-0.227,0.571-0.464,0.939-0.667
					c0.359-0.204,0.723-0.403,1.091-0.589l0.554-0.271c0.184-0.088,0.485-0.177,0.727-0.256c0.513-0.161,1.035-0.295,1.554-0.401
					l0.388-0.075c0.105-0.016,0.135-0.009,0.205-0.015l0.367-0.017l1.26-0.052c0.574,0.047,1.162,0.12,1.709,0.248
					c0.523,0.16,1.037,0.346,1.531,0.574c0.514,0.279,1.015,0.596,1.479,0.938c0.148,0.105,0.149,0.121,0.202,0.168l0.132,0.125
					l0.264,0.25l0.132,0.125l0.223,0.195l0.056,0.06l0.11,0.119l0.432,0.485l0.415,0.498c0.143,0.209,0.281,0.422,0.413,0.638
					s0.259,0.434,0.379,0.653c0.136,0.267,0.292,0.674,0.403,1.021c0.114,0.364,0.204,0.733,0.27,1.095
					c0.022,0.197,0.012,0.261,0.02,0.398l0.037,0.893l-0.082,0.676c-0.061,0.454-0.14,0.899-0.271,1.26
					c-0.213,0.768-0.555,1.501-0.932,2.205c-0.341,0.576-0.521,0.78-0.881,1.284c-0.345,0.441-0.688,0.881-1.029,1.319l-0.513,0.645
					c-0.165,0.195-0.316,0.349-0.478,0.521l-0.951,1.006l-0.941,0.997l-0.233,0.248l-0.059,0.062
					c0.002-0.003-0.11,0.142-0.077,0.094l-0.028,0.029l-0.114,0.118l-0.455,0.469c-0.607,0.624-1.214,1.242-1.772,1.87
					c-0.582,0.622-1.126,1.247-1.645,1.874c-1.046,1.249-2.005,2.512-2.686,3.764l-0.255,0.468l-0.175,0.394
					c-0.06,0.137-0.131,0.255-0.189,0.412l-0.125,0.572L309,254.751l-0.016,0.071c-0.005,0.038,0.007-0.199,0.001-0.085
					l-0.003,0.029l-0.01,0.118c-0.01,0.157-0.037,0.32-0.036,0.475c-0.002,0.313,0.022,0.618,0.075,0.917
					c0.106,0.589,0.351,1.165,0.67,1.654c0.088,0.119,0.141,0.231,0.256,0.362l0.357,0.384c0.174,0.157,0.463,0.375,0.687,0.563
					c0.226,0.221,0.519,0.318,0.778,0.476c0.265,0.156,0.532,0.292,0.813,0.363c0.279,0.089,0.545,0.196,0.839,0.258
					c0.309,0.041,0.612,0.082,0.911,0.121c2.319,0.219,4.428-0.226,6.017-0.85c1.598-0.662,2.78-1.381,3.339-2.139
					C324.271,256.727,324.16,256.152,324.188,256.172z"/>
			</g>
		</g>
		<g>
			<g>
				<path fill="#E83828" d="M566.375,487.09c-0.031,2.3-0.714,4.537-1.553,6.673c-0.188,0.541-0.443,1.061-0.697,1.588
					c-0.224,0.545-0.551,1.029-0.839,1.544c-0.326,0.499-0.655,0.962-1.077,1.444c-0.211,0.204-0.365,0.423-0.611,0.631
					c-0.261,0.195-0.489,0.446-0.801,0.593c-0.514,0.384-1.484,0.479-1.988,0.447l-0.573-0.078c-0.186-0.054-0.372-0.114-0.56-0.18
					c-0.185-0.086-0.368-0.206-0.549-0.32c-0.16-0.145-0.324-0.306-0.465-0.476c-0.112-0.18-0.236-0.371-0.323-0.563
					c-0.068-0.189-0.138-0.386-0.192-0.581l-0.089-0.56l-0.01-0.07l0.014-0.219l0.006-0.107l0.014-0.216
					c0.03-0.188,0.129-0.483,0.222-0.718c0.107-0.276,0.181-0.352,0.274-0.54c0.177-0.346,0.376-0.586,0.572-0.871
					c0.209-0.378,0.687-0.974,0.839-1.369c0.23-0.41,0.412-0.882,0.589-1.351c0.313-0.945,0.488-1.898,0.533-2.847
					c-0.012-0.483,0.009-0.948-0.061-1.427l-0.035-0.353l-0.009-0.088l-0.002-0.021c-0.002-0.14,0.001,0.165-0.001,0.124
					l-0.01-0.054l-0.036-0.214c-0.054-0.259-0.089-0.626-0.156-0.797c-0.08-0.103-0.131-0.198-0.18-0.288
					c-0.089-0.064-0.142-0.166-0.198-0.196c-0.077,0.032-0.076-0.034-0.113,0.048c-0.017,0.057,0.011,0.077-0.018,0.142
					c-0.008,0.025,0.019,0.03,0,0.047c-0.031,0.024-0.057,0.043-0.079,0.055c-0.009,0.005-0.152,0.059-0.252,0.086l-0.077,0.019
					l-0.038,0.007c0.512-0.02,0.127-0.002,0.234-0.005l-0.026,0.006L558,486.047l-0.424,0.087c-0.13,0.09,0.065,0.08-0.109,0.163
					c-0.16,0.099-0.285,0.149-0.476,0.277l-0.265,0.164l-0.065,0.04l-0.033,0.021l-0.017,0.01c0.232-0.092-0.335,0.136-0.286,0.117
					l-0.193,0.098l-0.774,0.387l-0.194,0.094c-0.086,0.037-0.06,0.044-0.334,0.136c-0.422,0.143-0.866,0.254-1.312,0.328
					l-0.332,0.049l-0.529-0.007l-0.216,0.004c-0.088-0.002-0.108,0.009-0.252-0.002c-0.23-0.027-0.464-0.063-0.695-0.109
					c-0.473-0.087-0.909-0.23-1.322-0.425c-0.407-0.166-0.841-0.438-1.254-0.772c-0.417-0.313-0.748-0.717-1.064-1.137
					c-0.316-0.425-0.484-0.816-0.681-1.257c-0.166-0.415-0.243-0.756-0.338-1.147c-0.082-0.376-0.098-0.647-0.134-0.979l-0.02-0.239
					l0.024-0.619l0.004-0.216c0.008-0.162-0.003-0.246,0.019-0.473c0.075-0.461,0.19-0.934,0.343-1.391
					c0.076-0.229,0.162-0.453,0.254-0.671c0.087-0.177,0.175-0.329,0.269-0.493c0.188-0.321,0.392-0.636,0.607-0.938
					c0.217-0.28,0.445-0.504,0.683-0.748c0.498-0.516,0.958-0.817,1.438-1.13c0.507-0.349,0.91-0.508,1.363-0.727
					c0.466-0.228,0.854-0.347,1.261-0.484c0.414-0.143,0.818-0.266,1.181-0.343l0.564-0.133l0.284-0.063l0.142-0.03
					c0.481-0.098-0.614,0.125-0.492,0.1l0.025-0.009l0.052-0.016l0.821-0.255c-0.081-0.049-0.358-0.004-0.488,0.088
					c-0.029,0.014-0.091,0.073-0.087,0.059l0.007-0.033c0.005-0.02,0.013-0.034,0.022-0.045c0.012-0.017,0.023-0.006,0.044-0.035
					c0.021-0.044,0.045-0.086,0.069-0.126c0.025-0.04,0.052-0.078,0.083-0.112l0.048-0.051l0.013-0.013
					c-0.367,0.549-0.095,0.139-0.173,0.255l0.014-0.022l0.056-0.093l0.442-0.736c0.027-0.051,0.095-0.148,0.089-0.159l-0.021-0.019
					c-0.013-0.011-0.021-0.019-0.021-0.021c-0.001-0.004,0.004-0.006,0.015-0.007c0.001-0.028,0.001-0.065,0.007-0.096
					c-0.005-0.063,0.071-0.127,0.041-0.18c-0.005-0.026-0.007-0.052-0.001-0.077l0.011-0.038l0.008-0.02l0.004-0.01l0.003-0.005
					c-0.019-0.413,0.027,0.56,0.021,0.447l-0.034-0.428l-0.018-0.215l-0.008-0.106c-0.003-0.04-0.007-0.089-0.009-0.018
					c-0.04,0.316,0.146,0.69,0.227,0.888c0.093,0.219,0.274,0.372,0.407,0.55c0.073,0.081,0.188,0.146,0.26,0.194
					c0.047,0.05,0.103,0.09,0.164,0.118c0.181,0.054,0.126,0.063,0.165,0.055c0.071-0.022-0.081-0.024-0.135-0.053
					c-0.047-0.037-0.198-0.045-0.349-0.062l-0.218-0.034l-0.055-0.01l-0.014-0.002c0.612-0.021,0.154-0.006,0.284-0.01h-0.054
					l-0.216,0.004l-0.86,0.013l-0.215,0.002c-0.074-0.001-0.042,0.01-0.068,0.013c-0.024,0.008-0.05,0.013-0.076,0.013
					c-0.1-0.043-0.257,0.018-0.436,0.021c-0.083,0.005-0.092,0.045-0.159,0.042l-0.045,0.002l-0.024-0.002l-0.014-0.001
					c-0.385,0.284-0.119,0.087-0.211,0.154l-0.023,0.015l-0.37,0.22l-0.307,0.179l-0.475,0.258c-0.162,0.082-0.316,0.16-0.488,0.235
					c-0.192,0.076-0.388,0.147-0.585,0.213c-0.207,0.066-0.374,0.122-0.616,0.179c-0.295,0.061-0.598,0.104-0.899,0.129
					c-0.151,0.013-0.302,0.02-0.451,0.023c0.246,0.011-0.469-0.013-0.396-0.012l-0.026-0.005l-0.054-0.008l-0.213-0.033
					l-0.275-0.043c-0.248-0.038-0.497-0.087-0.742-0.148c-0.501-0.113-0.952-0.293-1.38-0.521c-0.418-0.198-0.863-0.519-1.27-0.885
					c-0.414-0.349-0.721-0.784-1.015-1.227c-0.279-0.443-0.42-0.846-0.583-1.288c-0.129-0.409-0.179-0.749-0.24-1.13
					c-0.05-0.365-0.038-0.627-0.045-0.943l0.001-0.228l0.001-0.057c-0.003,0.044,0.024-0.61,0.016-0.345l0.01-0.053l0.039-0.213
					c0,0,0.052-0.342,0.105-0.574c0.055-0.251,0.123-0.5,0.201-0.741c0.14-0.343,0.292-0.707,0.472-1.007
					c0.357-0.613,0.778-1.119,1.189-1.506c0.419-0.402,0.831-0.692,1.229-0.947l0.809-0.471l0.402-0.159l0.806-0.319
					c0.146-0.055,0.241-0.103,0.429-0.164l0.606-0.186c1.689-0.534,3.081-0.617,4.47-0.629l1.026,0.054l0.508,0.03l0.253,0.016
					l0.299,0.016l0.106,0.021l1.701,0.34c0.681,0.175,1.433,0.414,2.114,0.639c0.667,0.278,1.284,0.632,1.9,0.952
					c0.295,0.197,0.577,0.427,0.858,0.641c0.295,0.238,0.521,0.392,0.857,0.7c0.207,0.229,0.369,0.385,0.613,0.675
					c0.242,0.307,0.518,0.618,0.698,0.925c0.787,1.205,1.172,2.588,1.26,3.884c0.059,0.671,0.035,1.246-0.027,1.951l-0.131,0.854
					c-0.049,0.292-0.145,0.62-0.208,0.924c-0.06,0.314-0.159,0.606-0.262,0.896s-0.186,0.583-0.329,0.857
					c-0.142,0.288-0.234,0.53-0.415,0.849l-0.474,0.723l-0.458,0.73c-0.171,0.237-0.367,0.465-0.549,0.697l-1.104,1.371
					l-0.062-0.359l0.882,0.718c0.272,0.262,0.532,0.538,0.796,0.804l0.692,0.891c0.187,0.326,0.381,0.646,0.557,0.975
					c0.138,0.348,0.302,0.684,0.423,1.034l0.148,0.538c0.044,0.181,0.112,0.354,0.135,0.539c0.054,0.367,0.127,0.731,0.166,1.1
					L566.375,487.09z M566.375,487.09l-0.065-1.108c-0.044-0.367-0.12-0.73-0.181-1.095c-0.029-0.183-0.104-0.354-0.155-0.532
					l-0.168-0.527c-0.136-0.342-0.307-0.67-0.461-1.002c-0.194-0.313-0.405-0.613-0.606-0.918c-0.246-0.272-0.479-0.554-0.732-0.814
					c-0.281-0.235-0.554-0.477-0.836-0.703l-0.914-0.592l-0.201-0.131l0.14-0.229l0.883-1.434c0.144-0.239,0.298-0.467,0.432-0.714
					l0.357-0.782l0.342-0.791c0.067-0.197,0.141-0.507,0.211-0.751c0.083-0.254,0.108-0.526,0.153-0.79
					c0.045-0.265,0.087-0.527,0.087-0.784c0.009-0.265,0.026-0.5,0.017-0.779l-0.052-0.863c-0.064-0.438-0.154-1.012-0.307-1.468
					c-0.3-0.958-0.807-1.76-1.454-2.349c-0.152-0.16-0.317-0.226-0.457-0.346c-0.159-0.115-0.469-0.293-0.695-0.437
					c-0.342-0.113-0.822-0.318-1.207-0.461c-0.46-0.071-0.896-0.186-1.323-0.236c-0.442,0.007-0.809-0.017-1.257-0.022l-1.73,0.129
					l-0.108,0.009c-0.048-0.001,0.314,0.013,0.151,0.01l-0.022,0.005l-0.044,0.011l-0.176,0.042l-0.35,0.082l-0.69,0.156
					c-0.882,0.254-1.753,0.632-2.19,0.962l-0.204,0.103c-0.078,0.042-0.224,0.156-0.332,0.23l-0.704,0.505l-0.352,0.252
					l-0.022,0.016c0.101-0.059-0.255,0.153,0.22-0.128l-0.014,0.02l-0.028,0.037l-0.056,0.07c-0.059,0.088-0.091,0.164-0.059,0.185
					c0.012,0.024,0.098-0.011,0.184-0.12c0.038-0.051,0.109-0.137,0.134-0.218c0.046-0.102,0.081-0.211,0.104-0.322
					c0.023-0.093,0.029-0.307,0.029-0.152l0.007,0.216l0.002,0.054c-0.011,0.283,0.014-0.353,0.014-0.291l0.004-0.003l0.016-0.013
					c0.021-0.032,0.022-0.004,0.031-0.089c0.009-0.104-0.002-0.156-0.033-0.297c-0.034-0.189-0.1-0.306-0.206-0.521
					c-0.106-0.228-0.286-0.39-0.452-0.584c-0.184-0.185-0.41-0.317-0.555-0.418c-0.172-0.094-0.358-0.168-0.573-0.235
					c-0.106-0.028-0.216-0.045-0.324-0.05c-0.043-0.002-0.039-0.002-0.01-0.002l0.055-0.001l0.107-0.002l0.216-0.004l0.054-0.002
					h0.027c0.09,0.003-0.606-0.023-0.344-0.016c-0.078-0.006-0.158-0.009-0.238-0.006c-0.16,0.004-0.32,0.027-0.474,0.067
					c-0.104,0.021-0.14,0.017-0.212,0.035c-0.063,0.015-0.125,0.036-0.183,0.063c-0.045,0.012-0.075,0.015-0.111,0.029
					c-0.035,0.012-0.068,0.028-0.1,0.047c-0.008,0.004-0.048,0.034-0.028,0.018l0.082-0.069l0.331-0.277l0.021-0.017
					c-0.077,0.057,0.201-0.151-0.168,0.123l0.078-0.059l0.157-0.115l0.318-0.229c0.427-0.289,0.872-0.615,1.315-0.832
					c0.888-0.418,1.788-0.811,2.834-1.007l0.765-0.159l0.354-0.063l0.214-0.024l0.855-0.092l0.214-0.022l0.053-0.006l0.378-0.012
					l0.16,0.001l0.641,0.01c0.423,0.007,0.844,0.021,1.358,0.111c0.505,0.089,0.935,0.121,1.536,0.328
					c0.574,0.191,1.09,0.33,1.74,0.724c0.308,0.174,0.61,0.361,0.902,0.558c0.298,0.221,0.602,0.508,0.884,0.783
					c0.59,0.541,1.022,1.22,1.41,1.928c0.386,0.685,0.637,1.652,0.793,2.503c0.024,0.14,0.024,0.162,0.027,0.194l0.01,0.106
					l0.021,0.214l0.04,0.428c-0.003-0.094,0.04,0.896,0.021,0.501l-0.002,0.049l-0.005,0.098l-0.011,0.194l-0.026,0.391
					l-0.075,0.778c-0.04,0.524-0.208,0.998-0.328,1.495l-0.215,0.733l-0.333,0.779c-0.116,0.259-0.24,0.514-0.369,0.765
					l-0.195,0.374c-0.065,0.12-0.086,0.137-0.131,0.21l-0.471,0.719l-0.06,0.09l-0.216,0.322l-0.058,0.07l-0.229,0.277l-0.472,0.544
					l-0.484,0.531c-0.179,0.176-0.402,0.354-0.606,0.524l-0.639,0.503l-0.325,0.242c-0.104,0.078-0.306,0.185-0.458,0.271
					c-0.639,0.352-1.416,0.683-2.016,0.872l-0.841,0.18l-0.625,0.128l-0.068,0.009l-0.139,0.017l-0.28,0.024
					c-0.205,0.008-0.354,0.035-0.488,0.061c-0.144,0.021-0.314,0.037-0.366,0.062c-0.068,0.017-0.22,0.029-0.18,0.02
					c-0.011-0.014-0.051-0.031,0.056-0.12c0.034-0.043,0.032-0.09,0.068-0.149c0.057-0.064,0.102-0.142,0.129-0.226
					c0.016-0.044,0.018-0.08,0.032-0.133c0.045-0.084,0.082-0.174,0.109-0.268c0.057-0.187,0.075-0.39,0.054-0.581
					c-0.026,0.055-0.055,0.258-0.082,0.38l-0.041,0.212l-0.011,0.053l-0.005,0.026c0.053-0.958,0.015-0.27,0.025-0.484l-0.005-0.024
					c-0.007-0.049-0.035-0.029-0.055-0.126c-0.021-0.116-0.064-0.167-0.126-0.316c-0.063-0.188-0.162-0.291-0.295-0.493
					c-0.134-0.2-0.326-0.343-0.497-0.498c-0.436-0.31-0.655-0.357-1.056-0.44c-0.093-0.011-0.188-0.013-0.279-0.004
					c-0.002,0.013,0.121,0.027,0.176,0.041l0.212,0.042l0.053,0.01l0.026,0.006c-0.739-0.034-0.223-0.012-0.396-0.021l-0.125-0.007
					c-0.168-0.001-0.337,0.036-0.481,0.104c-0.135,0.06,0.024,0.011,0.074,0l0.209-0.052l0.842-0.199l0.211-0.048
					c0.065-0.025-0.485,0.196-0.236,0.098l0.033-0.011l0.066-0.021l0.134-0.04l0.531-0.16c0.333-0.108,0.767-0.195,1.148-0.283
					c0.371-0.086,1.135-0.194,1.565-0.213l0.433,0.018l0.054,0.003l0.027,0.002c0.125-0.004-0.242,0.01,0.287-0.008l0.177,0.024
					l0.352,0.052c0.47,0.078,0.905,0.134,1.44,0.337c0.255,0.088,0.505,0.183,0.75,0.282c0.25,0.113,0.516,0.285,0.762,0.438
					c0.51,0.292,0.942,0.721,1.337,1.178c0.421,0.442,0.619,0.949,0.883,1.438c0.198,0.479,0.298,0.938,0.417,1.405
					c0.07,0.469,0.102,0.941,0.125,1.402c0.001,0.396-0.05,0.606-0.072,0.918l-0.021,0.216l-0.005,0.054
					c-0.001-0.023-0.001,0.3-0.004,0.178l-0.005,0.032l-0.022,0.127l-0.089,0.505c-0.098,0.67-0.302,1.333-0.482,1.981
					c-0.432,1.296-1.042,2.512-1.786,3.601c-0.388,0.529-0.78,1.049-1.247,1.552c-0.474,0.567-0.816,0.785-1.327,1.297
					c-0.384,0.28-0.707,0.718-0.806,0.718l-0.059,0.208l-0.029,0.104l-0.007,0.025c-0.015,0.153,0.01-0.179,0.008-0.138
					l-0.002,0.036l-0.025,0.297c0.007,0.084,0.016,0.164,0.017,0.253c0.014,0.074,0.039,0.132,0.049,0.21
					c0.055,0.237,0.377,0.481,0.758,0.578c0.105,0.033,0.273,0.045,0.408,0.068c0.047,0.007,0.195,0.029,0.159,0.024l0.146-0.01
					c0.099-0.013,0.199,0.015,0.307-0.019l0.329-0.104c0.23-0.051,0.424-0.218,0.649-0.318c0.222-0.124,0.455-0.336,0.675-0.507
					c0.375-0.335,0.779-0.764,1.134-1.182c0.7-0.877,1.323-1.812,1.813-2.856C565.561,491.605,566.334,489.396,566.375,487.09z"/>
			</g>
		</g>
		<g>
			<g>
				<path fill="#E83828" d="M67.891,473.48c-0.017,0.551-0.038,1.11-0.214,1.639c-0.146,0.527-0.462,1.042-0.963,1.309
					c-0.488,0.267-1.089,0.323-1.629,0.245c-0.572-0.097-1.077-0.473-1.349-0.979c-0.295-0.499-0.402-1.07-0.469-1.628l-0.154-1.653
					c-0.196-1.051-0.595-2.05-1.248-2.839c-0.649-0.825-1.573-1.211-2.553-1.248c-0.223-0.018-0.535,0.001-0.696,0.019
					c-0.267,0.043-0.582,0.071-0.738,0.157c-0.38,0.103-0.799,0.385-1.138,0.661c-0.677,0.606-1.218,1.483-1.595,2.354l-0.32,0.77
					l-0.156,0.383l-0.075,0.339c-0.103,0.444-0.225,0.862-0.244,1.35c-0.018,0.234-0.059,0.463-0.061,0.695l0.048,0.692l0.02,0.34
					l0.05,0.349c0.041,0.269,0.073,0.576,0.132,0.766c0.191,0.863,0.524,1.754,0.939,2.305c0.441,0.557,0.865,0.81,1.41,0.914
					c0.255,0.071,0.588,0.073,0.916,0.085c0.183-0.015,0.354-0.017,0.542-0.036l0.289-0.038l0.143-0.017l0.018-0.002
					c-0.387,0.012-0.1,0.002-0.183,0.004l0.013-0.002l0.051-0.01l0.103-0.018l0.411-0.074l0.203-0.036l0.016-0.048
					c0.019-0.061,0.024-0.059,0.088-0.138c0.025-0.028,0.051-0.05,0.077-0.068c0.008-0.034,0.017-0.063,0.028-0.085
					c0.034-0.025,0.02-0.111,0.038-0.144c0.016-0.04,0.015-0.135,0.043-0.173c0.009-0.104,0.033-0.175,0.057-0.276l0.027-0.188
					l0.018-0.09l0.01-0.044l0.05-0.14l0.007-0.024l0.014-0.051l0.055-0.2l0.028-0.101c0.01-0.033,0.011-0.053,0.056-0.156
					c0.137-0.329,0.293-0.668,0.468-0.972c0.186-0.291,0.353-0.563,0.595-0.848c0.263-0.287,0.495-0.564,0.838-0.816
					c0.632-0.51,1.444-0.896,2.193-1.074c0.4-0.112,0.729-0.141,1.092-0.178l0.937-0.004l0.208-0.001
					c0.001-0.006,0.128,0.01,0.254,0.028l0.357,0.063c0.464,0.097,0.981,0.231,1.366,0.42c0.392,0.188,0.78,0.405,1.137,0.654
					c0.339,0.271,0.666,0.576,0.963,0.9c0.511,0.609,0.943,1.348,1.144,1.911c0.493,1.261,0.543,2.163,0.62,3.063l0.002,0.03
					l-0.057,0.654l-0.653,7.494c-0.138,1.264-0.173,2.434-0.285,3.65l-0.152,1.806l-0.081,0.902l-0.021,0.226l-0.061,0.506
					L70.841,497c-0.013,0.083-0.01,0.109-0.065,0.378c-0.164,0.855-0.438,1.663-0.881,2.477c-0.295,0.474-0.549,0.891-0.983,1.343
					c-0.443,0.452-0.903,0.867-1.483,1.187c-0.281,0.163-0.576,0.315-0.867,0.44c-0.275,0.103-0.56,0.191-0.847,0.267
					c-0.615,0.171-1.06,0.191-1.561,0.219l-0.369,0.009h-0.046l-0.476-0.034l-0.029-0.004l-0.059-0.007l-0.235-0.028l-0.235-0.027
					c-0.229-0.037-0.544-0.103-0.811-0.172c-0.558-0.144-1.107-0.334-1.552-0.586c-0.469-0.253-0.912-0.505-1.335-0.893
					c-0.419-0.37-0.829-0.774-1.109-1.202c-0.294-0.421-0.605-0.911-0.75-1.301c-0.164-0.396-0.355-0.877-0.429-1.227
					c-0.083-0.359-0.153-0.723-0.209-1.087c-0.035-0.321-0.047-0.614-0.062-0.923l-0.008-0.229l-0.003-0.114l-0.001-0.058
					l0.01-0.313l0.001-0.008l0.002-0.015l0.035-0.234c0.355-2.504,0.776-5.004,1.223-7.502l6.719,4.389
					c-1.815,0.857-3.64,1.108-5.266,1.124l-0.608-0.005l-0.303-0.004l-0.076-0.002l-0.257-0.007l-0.027-0.003l-0.111-0.015
					l-0.885-0.109c-0.447-0.067-0.963-0.166-1.433-0.273c-0.486-0.106-0.854-0.265-1.281-0.403
					c-1.644-0.611-3.165-1.581-4.344-2.751c-0.601-0.582-1.099-1.207-1.566-1.84l-0.045-0.06l-0.011-0.015
					c0.018,0.023-0.2-0.256-0.111-0.143l-0.014-0.024l-0.058-0.096l-0.115-0.192l-0.229-0.384c-0.127-0.202-0.374-0.653-0.559-1.017
					c-0.204-0.386-0.38-0.762-0.501-1.108c-0.13-0.358-0.287-0.705-0.383-1.069l-0.299-1.08l-0.204-1.085
					c-0.211-1.438-0.275-2.861-0.141-4.216l0.051-0.666l0.081-0.44l0.162-0.881c0.112-0.59,0.182-1.143,0.426-1.871l0.636-2.017
					c0.289-0.613,0.595-1.209,0.893-1.801c0.263-0.608,0.684-1.132,1.059-1.671l0.567-0.799l0.142-0.198l0.071-0.099l0.018-0.024
					c-0.009,0.012,0.11-0.149,0.064-0.086l0.01-0.01l0.039-0.041l0.311-0.321c0.214-0.218,0.398-0.425,0.636-0.649l0.781-0.682
					c0.252-0.237,0.533-0.407,0.803-0.6c0.274-0.184,0.531-0.386,0.834-0.527c1.13-0.687,2.433-1.021,3.682-1.22
					c1.264-0.2,2.537-0.079,3.726,0.126c1.243,0.215,2.422,0.645,3.439,1.356c1.012,0.705,1.824,1.662,2.386,2.713
					C67.57,468.697,67.873,471.119,67.891,473.48z M67.891,473.48c-0.021-1.186-0.108-2.375-0.372-3.53
					c-0.25-1.154-0.676-2.281-1.295-3.268c-0.628-0.997-1.458-1.854-2.471-2.398c-0.999-0.554-2.146-0.827-3.252-0.896
					c-1.159-0.043-2.298,0.033-3.354,0.364c-1.051,0.318-2.034,0.803-2.834,1.513c-0.218,0.148-0.395,0.357-0.584,0.542
					c-0.182,0.191-0.391,0.363-0.53,0.575l-0.457,0.598c-0.155,0.219-0.315,0.496-0.473,0.741L52.03,468.1L52,468.147l-0.007,0.012
					c-0.052,0.071,0.062-0.083,0.048-0.063l-0.01,0.023l-0.04,0.095l-0.08,0.188l-0.318,0.744c-0.21,0.494-0.441,0.97-0.527,1.505
					l-0.36,1.529l-0.103,1.466c-0.073,0.422-0.019,1.062,0.009,1.655l0.044,0.895l0.022,0.447l0.003,0.057l0.001,0.027l0,0.015
					c-0.001,0.042,0.012-0.317,0.008-0.16l0.017,0.096l0.033,0.189c0.135,1.021,0.431,1.962,0.777,2.824l0.284,0.627l0.333,0.582
					c0.102,0.197,0.251,0.362,0.368,0.544c0.122,0.195,0.247,0.33,0.362,0.446c0.131,0.138,0.165,0.212,0.414,0.472l0.303,0.328
					l0.152,0.165l0.076,0.082l0.019,0.021c0.094,0.12-0.118-0.151-0.093-0.122l0.008,0.006l0.03,0.023
					c0.316,0.26,0.623,0.507,0.938,0.684c0.629,0.362,1.218,0.571,1.845,0.649c0.149,0.002,0.341,0.056,0.442,0.032
					c0.118-0.019,0.186-0.015,0.327-0.003l0.892-0.021l0.111-0.003l0.028-0.001c0.053,0.002-0.411-0.011-0.21-0.007l0.009-0.001
					l0.035-0.007l0.142-0.025l0.281-0.047c0.734-0.136,1.279-0.368,1.591-0.587l7.313-5.123l-0.594,9.513
					c-0.157,2.516-0.341,5.03-0.59,7.541l-0.021,0.235l-0.001,0.015l-0.001,0.007c-0.002,0.069,0.018-0.568,0.01-0.299l0.002,0.002
					l0.004,0.004l0.006,0.008c0.007,0.006,0.003,0.03,0,0.021c0.006-0.054-0.001-0.108-0.021-0.159
					c-0.019-0.037-0.049-0.237-0.111-0.336c-0.057-0.081-0.148-0.333-0.277-0.485c-0.13-0.145-0.276-0.361-0.469-0.513
					c-0.391-0.312-0.675-0.473-1.224-0.619c-0.115-0.026-0.28-0.041-0.356-0.039l0.235,0.025l0.235,0.024l0.059,0.007l0.029,0.003
					l0.007,0.001c-0.204-0.015,0.465,0.033-0.454-0.032l-0.017-0.002l-0.132-0.006c-0.187,0.001-0.312,0.032-0.627,0.09
					c-0.135,0.033-0.268,0.08-0.391,0.141c-0.151,0.054-0.31,0.124-0.453,0.212c-0.285,0.193-0.537,0.36-0.745,0.603
					c-0.202,0.239-0.318,0.36-0.424,0.584c-0.148,0.253-0.215,0.464-0.244,0.7c-0.008,0.117,0.01-0.014,0.021-0.087l0.035-0.233
					l0.019-0.117l0.009-0.059l0.004-0.029c0.007-0.062-0.06,0.511-0.031,0.265l0.001-0.008l0.002-0.015l0.03-0.245l0.12-0.981
					l0.25-1.961c0.18-1.291,0.337-2.642,0.572-3.876l0.738-3.721l0.186-0.931l0.111-0.531l0.109-0.462l0.436-1.849l-0.055,0.685
					c0.03-0.199,0.034-0.421,0.126-0.198c0.055,0.028,0.169,0.299,0.37,0.459c0.103,0.128,0.235,0.237,0.379,0.313
					c0.125,0.1,0.271,0.185,0.426,0.229c0.148,0.045,0.38,0.146,0.585,0.15c0.053,0.004,0.106,0.005,0.159,0.003
					c0.059-0.002,0.121-0.008,0.052-0.014l-0.205-0.036l-0.205-0.037l-0.102-0.018l0.373,0.016l0.015-0.001l0.03-0.004
					c0.088-0.009,0.137-0.046,0.272-0.073c0.207-0.073,0.503-0.222,0.695-0.4c0.196-0.19,0.292-0.347,0.316-0.453
					c0.03-0.068,0.067-0.157,0.07-0.245c0.009-0.044-0.013,0.002-0.028,0.033l-0.048,0.093l-0.095,0.185l-0.024,0.047l-0.012,0.023
					c-0.043,0.114,0.053-0.144,0.04-0.11l-0.009,0.019l-0.071,0.147l-0.144,0.292l-0.295,0.576
					c-0.227,0.389-0.505,0.782-0.775,1.155c-0.337,0.374-0.647,0.749-1.044,1.073c-0.41,0.318-0.807,0.641-1.275,0.86
					c-0.228,0.118-0.457,0.23-0.687,0.336l-0.698,0.226c-0.442,0.152-0.989,0.229-1.51,0.285l-0.39,0.036l-0.21-0.011l-0.417-0.021
					l-0.104-0.006l-0.052-0.003l-0.013-0.001l-0.208,0.006l-0.034-0.004l-0.271-0.032l-0.54-0.069
					c-0.363-0.056-0.739-0.142-1.104-0.224c-0.75-0.214-1.507-0.465-2.238-0.901c-1.486-0.797-2.65-2.269-3.189-3.68
					c-0.548-1.444-0.66-2.759-0.641-4.093c-0.004-0.36,0.031-0.606,0.053-0.89l0.044-0.48l0.08-0.486l0.169-0.961
					c0.078-0.313,0.187-0.62,0.281-0.926c0.162-0.609,0.462-1.216,0.758-1.803l0.22-0.437l0.234-0.348l0.471-0.688
					c0.71-1.044,1.53-1.976,2.653-2.668c0.588-0.314,1.157-0.576,1.87-0.676c0.375-0.077,0.619-0.05,0.902-0.056
					c0.389,0.014,0.634,0.044,0.957,0.108c1.215,0.207,2.391,0.979,3.015,1.977c0.665,1.003,0.971,2.155,1.055,3.294
					c0.08,1.095-0.137,2.256,0.366,3.215c0.225,0.479,0.663,0.85,1.188,0.966c0.547,0.096,1.1,0.058,1.593-0.185
					c0.5-0.238,0.823-0.743,0.971-1.268C67.84,474.591,67.868,474.031,67.891,473.48z"/>
			</g>
		</g>
		<g>
			<g>
				<path fill="#E83828" d="M310.828,726.23c-0.064,0.828-0.052,1.666-0.18,2.487c-0.163,0.814-0.231,1.661-0.522,2.449l-0.358,1.21
					l-0.506,1.16c-0.158,0.373-0.326,0.817-0.551,1.161c-0.207,0.361-0.405,0.723-0.684,1.077c-0.987,1.441-2.407,2.722-4.25,3.318
					c-0.228,0.071-0.456,0.155-0.688,0.212l-0.707,0.127l-0.358,0.063c0.006,0.002-0.128-0.001-0.081,0.001l-0.02,0.002
					l-0.039,0.003l-0.078,0.008l-0.157,0.015l-0.628,0.06c-0.388,0.06-0.963-0.002-1.45-0.011c-0.507-0.03-0.977-0.134-1.481-0.201
					c-1.985-0.396-3.941-1.584-5.352-3.154l-0.272-0.293l-0.067-0.074l-0.034-0.037c-0.154-0.254-0.05-0.079-0.087-0.14
					l-0.012-0.016l-0.098-0.124l-0.393-0.494c-0.268-0.363-0.607-0.942-0.864-1.397c-0.483-0.905-0.909-1.846-1.225-2.79
					c-0.171-0.475-0.324-0.95-0.436-1.425c-0.133-0.479-0.241-0.956-0.33-1.43c-0.203-0.982-0.34-1.845-0.403-2.905
					c-0.075-0.835-0.164-1.67-0.213-2.504c-0.009-0.926,0.006-1.913,0.03-2.876c0.011-0.987,0.176-1.882,0.267-2.83
					c0.078-0.939,0.285-1.869,0.505-2.803l0.333-1.397l0.042-0.175l0.08-0.255l0.094-0.298l0.188-0.595
					c0.069-0.209,0.112-0.375,0.202-0.617l0.294-0.754c0.202-0.496,0.399-1.018,0.627-1.462c0.86-1.837,1.999-3.658,3.494-5.259
					c0.743-0.8,1.559-1.551,2.453-2.212l0.332-0.249l0.27-0.199l0.067-0.041l0.134-0.08l0.536-0.322l0.268-0.161
					c0.073-0.046,0.314-0.175,0.464-0.254c0.345-0.181,0.694-0.353,1.046-0.513c0.703-0.327,1.463-0.493,2.229-0.657
					c0.435-0.051,0.874-0.084,1.309-0.1l0.325-0.008l0.081-0.001h0.04c-0.04-0.002,0.515,0.015,0.288,0.009l0.077,0.013l0.31,0.05
					l0.511,0.082c0.281,0.049,0.561,0.11,0.834,0.182c0.556,0.159,1.057,0.363,1.604,0.683c0.578,0.357,1.114,0.778,1.592,1.385
					c0.247,0.286,0.433,0.586,0.592,0.903c0.152,0.306,0.331,0.664,0.399,0.942c0.083,0.292,0.152,0.588,0.206,0.884
					c0.058,0.306,0.047,0.508,0.062,0.767l0.005,0.367l-0.002,0.183c0.026-0.417-0.036,0.622-0.032,0.52l-0.005,0.019l-0.01,0.039
					l-0.02,0.075l-0.01,0.038l-0.024,0.119c-0.065,0.329-0.163,0.66-0.29,0.975c-0.458,1.001-0.762,1.238-1.117,1.637l-0.465,0.418
					l-0.426,0.32c-0.278,0.198-0.533,0.353-0.785,0.498l-0.367,0.201l-0.046,0.025l-0.023,0.013
					c0.037-0.027-0.116,0.077,0.078-0.058l-0.07,0.036l-0.14,0.072l-1.127,0.571l-0.771,0.415c-0.268,0.135-0.536,0.365-0.815,0.546
					c-0.294,0.182-0.521,0.419-0.783,0.637c-0.271,0.214-0.502,0.462-0.731,0.718c-0.938,1.008-1.715,2.248-2.297,3.652
					l-2.698-1.698c0.484-0.224,0.9-0.491,1.419-0.649l0.75-0.243l0.794-0.129c0.258-0.054,0.53-0.038,0.795-0.033l0.396,0.013
					l0.247,0.013l0.154,0.028c0.432,0.09,0.783,0.11,1.283,0.258c0.472,0.119,0.93,0.244,1.348,0.438
					c0.43,0.159,0.838,0.373,1.235,0.597c0.402,0.21,0.754,0.514,1.116,0.772c0.319,0.319,0.671,0.596,0.943,0.945
					c0.293,0.33,0.569,0.667,0.792,1.041c0.255,0.354,0.452,0.756,0.631,1.117c0.358,0.78,0.664,1.577,0.855,2.394
					c0.115,0.404,0.191,0.816,0.26,1.229c0.089,0.408,0.115,0.827,0.174,1.239C310.785,724.566,310.828,725.397,310.828,726.23z
					 M310.828,726.23c-0.021-0.832-0.052-1.665-0.181-2.486c-0.079-0.408-0.119-0.823-0.234-1.223
					c-0.099-0.403-0.205-0.803-0.35-1.19c-0.116-0.396-0.304-0.767-0.47-1.142c-0.182-0.368-0.372-0.716-0.602-1.057l-0.364-0.51
					c-0.101-0.148-0.262-0.3-0.388-0.448c-0.255-0.312-0.553-0.575-0.856-0.827c-0.278-0.28-0.656-0.435-0.969-0.654
					c-0.358-0.152-0.688-0.344-1.06-0.444c-0.365-0.109-0.721-0.229-1.105-0.257c-0.375-0.07-0.74-0.065-1.093-0.067
					c-0.317-0.027-0.808,0.047-1.204,0.066l-0.156,0.013c0.065,0.008-0.049,0.023-0.063,0.034l-0.228,0.069
					c-0.148,0.045-0.296,0.07-0.434,0.158l-0.408,0.204l-0.382,0.282c-0.257,0.154-0.474,0.454-0.702,0.658l-2.982,2.664
					l0.284-4.362c0.121-1.849,0.537-3.762,1.341-5.588c0.196-0.46,0.405-0.918,0.667-1.346c0.254-0.433,0.489-0.894,0.796-1.291
					c0.306-0.41,0.565-0.829,0.929-1.237c0.359-0.406,0.737-0.82,1.115-1.219l0.902-0.882l0.113-0.109l0.058-0.055
					c0.204-0.143,0.062-0.046,0.109-0.08l0.009-0.01l0.019-0.02l0.144-0.156c0.084-0.099,0.161-0.196,0.198-0.269
					c0.012-0.033,0.037-0.071,0.04-0.095l-0.031-0.03c-0.046,0.021-0.09,0.053-0.133,0.099c-0.046,0.049-0.088,0.103-0.125,0.158
					c-0.036,0.062-0.052,0.066-0.177,0.343c-0.091,0.216-0.153,0.45-0.183,0.682c-0.01,0.087-0.007,0.058-0.007,0.042v-0.039v-0.078
					v-0.039v-0.021c0.007-0.115-0.058,0.911-0.032,0.48l-0.015,0.027c-0.009,0.019-0.016,0.037-0.02,0.057
					c-0.013,0.054-0.007,0.043-0.012,0.148c-0.002,0.096,0.012,0.191,0.039,0.283c0.027,0.071,0.064,0.265,0.131,0.382
					c0.067,0.129,0.146,0.253,0.234,0.397c0.085,0.135,0.229,0.255,0.319,0.353c0.089,0.1,0.194,0.187,0.31,0.255
					c0.179,0.136,0.284,0.184,0.439,0.247c0.069,0.032,0.145,0.054,0.221,0.063l0.058,0.006l0.029,0.001l-0.038,0.002l-0.156,0.008
					l-0.313,0.015l-0.079,0.004c-0.239-0.007,0.303,0.01,0.25,0.01l0.002,0.005l0.003,0.008l0.016,0.027
					c0.021,0.033,0.047,0.048,0.068,0.044c-0.019,0.092-0.085,0.114-0.116,0.178c-0.016,0.034-0.033,0.058-0.057,0.07
					c-0.029,0.024,0.016-0.027-0.078,0.053l-0.241,0.2l-0.481,0.399l-0.12,0.101l-0.061,0.05c-0.047,0.035,0.349-0.257,0.178-0.129
					l-0.009,0.01l-0.019,0.02l-0.142,0.157c-0.396,0.391-0.756,0.824-1.11,1.272c-0.693,0.908-1.326,1.945-1.863,3.126
					c-0.162,0.291-0.251,0.553-0.373,0.822l-0.181,0.401c-0.064,0.143-0.142,0.375-0.212,0.559l-0.384,1.045l-0.32,1.012
					l-0.343,1.01c-0.108,0.34-0.177,0.698-0.281,1.045c-0.171,0.693-0.434,1.418-0.533,2.095l-0.473,2.089
					c-0.104,0.829-0.248,1.656-0.378,2.484l-0.05,0.311l-0.025,0.155l-0.013,0.078l-0.003,0.019c0-0.053-0.004,0.147,0-0.114
					l-0.004,0.033l-0.065,0.534c-0.056,0.36-0.103,0.717-0.128,1.066c-0.04,0.356-0.067,0.708-0.074,1.052
					c-0.02,0.353-0.028,0.695-0.023,1.034c-0.009,0.692,0.058,1.347,0.153,2.001c0.065,0.311,0.055,0.498,0.169,0.873l0.217,0.594
					l0.054,0.148l0.007,0.019c-0.031-0.05,0.079,0.137-0.067-0.106l0.012,0.026l0.024,0.052l0.094,0.212
					c0.487,1.153,1.241,2.15,2.407,2.855c0.3,0.144,0.615,0.334,0.927,0.445l0.474,0.169c0.15,0.063,0.325,0.12,0.547,0.153
					l0.618,0.122l0.155,0.03l0.077,0.015l0.038,0.008l0.02,0.004c0.061,0.003-0.06,0.001-0.042,0.001l0.265,0.021l0.538,0.046
					c0.18,0.003,0.354-0.019,0.536-0.025c1.453-0.042,2.868-0.852,3.986-1.958c0.285-0.26,0.545-0.595,0.804-0.923
					c0.284-0.319,0.449-0.643,0.677-1.006l0.629-1.063l0.464-1.146c0.354-0.756,0.478-1.578,0.67-2.387
					C310.769,727.898,310.742,727.057,310.828,726.23z"/>
				<path fill="#E83828" d="M305.859,726.277c-0.045-0.56-0.05-1.133-0.226-1.673c-0.071-0.271-0.137-0.54-0.264-0.793
					c-0.12-0.254-0.23-0.508-0.372-0.744c-0.16-0.229-0.321-0.451-0.49-0.662c-0.154-0.185-0.388-0.44-0.582-0.611
					c-0.209-0.138-0.391-0.264-0.611-0.356c-0.195-0.117-0.431-0.13-0.613-0.148l-0.268,0.02l-0.239,0.097
					c-0.153,0.091-0.262,0.176-0.38,0.303l-0.076,0.08l-0.002,0.003l-0.001,0.001c0.061-0.001-0.137,0.005,0.135-0.003l-0.013,0.007
					l-0.025,0.013l-0.052,0.026l-0.103,0.053l-0.205,0.104l-0.103,0.053c-0.01,0.02-0.011,0.039-0.016,0.058
					c-0.015,0.075-0.021,0.141-0.021,0.196l-0.128,0.233c-0.17,0.318-0.286,0.662-0.439,1.028l-0.439,1.128l1.293-2.551
					c0.114,0.469,0.206,0.93,0.273,1.385c0.081,0.449,0.092,0.923,0.161,1.334c0.055,0.423,0.076,0.842,0.085,1.259l-0.002,0.156
					l-0.002,0.079v0.039l-0.001,0.02v0.005c-0.002-0.082,0.004,0.19-0.004-0.184l0.001,0.012l0.02,0.369l0.007,0.74l-0.004,0.177
					l0.005,0.09c0.005,0.06,0.004,0.12-0.002,0.181l-0.04,0.384c0.01,0.278-0.063,0.619-0.07,0.873
					c-0.005,0.068-0.021,0.143-0.03,0.216l-0.019,0.111l-0.002,0.015l-0.001,0.007l-0.001,0.004
					c-0.064-0.146,0.145,0.332-0.146-0.328l0.01,0.047l0.016,0.095l0.064,0.381c0.008,0.059,0.026,0.137,0.025,0.181l-0.052,0.006
					c-0.189,0.006-0.227,0.232-0.4,0.347c-0.133,0.096-0.342,0.312-0.34,0.511c-0.012,0.063,0,0.117,0.023,0.166l0.034,0.083
					l0.02,0.045l0.011,0.023l0.006,0.012c0.172-0.005-0.232,0.011-0.188,0.01l0.006,0.002l0.012,0.005l0.381,0.135l0.19,0.067
					c0.015,0.019,0.009,0.037,0.018,0.06c0.011,0.043,0.031,0.094,0.063,0.15c0.051,0.033,0.115,0.061,0.184,0.095
					c0.145,0.083,0.281,0.077,0.463,0.117c0.327-0.006,0.73-0.094,1.094-0.33c0.188-0.107,0.367-0.243,0.539-0.399
					c0.077-0.054,0.206-0.199,0.235-0.188l0.233-0.307c0.147-0.207,0.304-0.412,0.438-0.622c0.107-0.204,0.22-0.414,0.319-0.633
					c0.235-0.427,0.324-0.917,0.454-1.392C305.81,727.264,305.824,726.77,305.859,726.277z M305.859,726.277
					c-0.024,0.492-0.004,0.986-0.015,1.483c-0.035,0.496,0.001,0.999-0.057,1.518l-0.048,0.8l-0.087,0.761l-0.031,0.384
					c-0.063,0.24-0.07,0.303-0.104,0.469c-0.051,0.284-0.123,0.571-0.232,0.86c-0.175,0.593-0.494,1.193-0.937,1.799
					c-0.252,0.273-0.501,0.596-0.831,0.828c-0.161,0.124-0.323,0.248-0.503,0.367c-0.208,0.11-0.429,0.216-0.658,0.313l-0.343,0.139
					l-0.179,0.094l-0.357,0.188l-0.011,0.006l-0.006,0.003c0.04-0.001-0.368,0.015-0.2,0.009l-0.041,0.009l-0.081,0.016
					l-0.164,0.031l-0.335,0.057c-0.224,0.04-0.456,0.063-0.705,0.055c-0.98,0.041-2.068-0.26-2.978-0.754
					c-0.928-0.521-1.599-1.067-2.281-1.915l-0.248-0.307l-0.138-0.151l-0.259-0.284l-0.064-0.072l-0.031-0.036l-0.149-0.338
					l-0.004-0.008l-0.008-0.015l-0.017-0.03l-0.132-0.239l-0.26-0.487c-0.358-0.672-0.566-1.314-0.779-1.996
					c-0.106-0.34-0.162-0.719-0.233-1.082c-0.035-0.184-0.064-0.368-0.088-0.553l-0.038-0.277l-0.02-0.192l-0.047-0.738l-0.008-0.37
					l-0.002-0.239l0.003-0.054l0.005-0.106l0.011-0.213c0.045-0.567,0.104-1.135,0.194-1.697c0.077-0.575,0.24-1.08,0.398-1.613
					c0.162-0.526,0.348-1.047,0.557-1.56l0.965-2.375l0.328-0.176c0.69-0.371,1.389-0.723,2.203-0.978
					c0.386-0.139,0.813-0.245,1.243-0.326c0.43-0.082,0.877-0.142,1.329-0.163l0.681-0.013c0.276,0.004,0.548,0.019,0.81,0.043
					l0.193,0.02l0.108,0.039l0.216,0.079l0.108,0.039l0.055,0.02l0.027,0.01l0.013,0.005c0.274-0.008,0.08-0.001,0.143-0.003
					l0.005,0.002l0.012,0.004l0.346,0.112c0.446,0.139,0.889,0.373,1.271,0.627c0.388,0.277,0.712,0.581,0.98,0.91
					c0.513,0.677,0.796,1.331,0.984,2.023c0.08,0.319,0.109,0.566,0.182,0.896c0.046,0.312,0.099,0.61,0.152,0.902l0.088,0.884
					c0.05,0.284,0.03,0.581,0.054,0.865C305.862,725.152,305.831,725.713,305.859,726.277z"/>
			</g>
		</g>
	</g>
</g>
<line fill="none" x1="298" y1="-7770" x2="298" y2="8613"/>
</svg>
